<?xml version="1.0" encoding="utf-8"?>
<!-- Generator: Adobe Illustrator 24.1.3, SVG Export Plug-In . SVG Version: 6.00 Build 0)  -->
<svg version="1.1" id="Layer_1" xmlns="http://www.w3.org/2000/svg" xmlns:xlink="http://www.w3.org/1999/xlink" x="0px" y="0px"
	 viewBox="0 0 256 243" style="enable-background:new 0 0 256 243;" xml:space="preserve">
<style type="text/css">
	.st0{fill:url(#SVGID_1_);}
	.st1{fill:url(#SVGID_2_);}
	.st2{fill:url(#SVGID_3_);}
	.st3{fill:url(#SVGID_4_);}
	.st4{fill:url(#SVGID_5_);}
	.st5{fill:url(#SVGID_6_);}
</style>
<g>
	
		<linearGradient id="SVGID_1_" gradientUnits="userSpaceOnUse" x1="-167.7723" y1="540.1471" x2="-165.9082" y2="538.1584" gradientTransform="matrix(82.4907 0 0 -81.4303 13945.2207 44003.0625)">
		<stop  offset="0" style="stop-color:#F9A03C"/>
		<stop  offset="1" style="stop-color:#F7974E"/>
	</linearGradient>
	<path class="st0" d="M255.6,175.9c0.1-1.1,0.2-2.2,0.3-3.4c0.1-1.3-80.6-77.9-80.6-77.9h-1.9C173.3,94.7,255.1,180.9,255.6,175.9
		L255.6,175.9L255.6,175.9z"/>
	
		<linearGradient id="SVGID_2_" gradientUnits="userSpaceOnUse" x1="-167.386" y1="537.9727" x2="-163.8205" y2="534.4954" gradientTransform="matrix(40.2105 0 0 -40.4121 6709.2559 21789.2988)">
		<stop  offset="0" style="stop-color:#F9A03C"/>
		<stop  offset="1" style="stop-color:#F7974E"/>
	</linearGradient>
	<path class="st1" d="M83.5,149.4c-0.1,0.2-0.2,0.5-0.3,0.7c-0.1,0.2-0.2,0.5-0.3,0.7c-2.6,5.4,36,43.1,39.1,38.5
		c0.1-0.2,0.3-0.4,0.4-0.6c0.2-0.2,0.3-0.5,0.5-0.7C125.3,184.2,84.6,146.9,83.5,149.4L83.5,149.4L83.5,149.4z"/>
	
		<linearGradient id="SVGID_3_" gradientUnits="userSpaceOnUse" x1="-167.1208" y1="538.0076" x2="-163.9489" y2="534.371" gradientTransform="matrix(41.0403 0 0 -39.9333 6903.1704 21582.4805)">
		<stop  offset="0" style="stop-color:#F9A03C"/>
		<stop  offset="1" style="stop-color:#F7974E"/>
	</linearGradient>
	<path class="st2" d="M138,202.4c-0.1,0.2-0.9,1.6-1.6,2.2c-0.1,0.2,37.6,37.7,37.6,37.7h3.4C177.4,242.3,142,204,138,202.4
		L138,202.4L138,202.4z"/>
	
		<linearGradient id="SVGID_4_" gradientUnits="userSpaceOnUse" x1="-168.2125" y1="541.6814" x2="-167.5009" y2="540.7421" gradientTransform="matrix(255.8347 0 0 -242.016 43067.0586 131089.0156)">
		<stop  offset="0" style="stop-color:#F26D58"/>
		<stop  offset="1" style="stop-color:#F9A03C"/>
	</linearGradient>
	<path class="st3" d="M255.9,171.9c-1.8,39.1-34.2,70.4-73.7,70.4h-5.3l-39.5-38.9c3.3-4.6,6.3-9.3,9-14.3h35.9
		c11.4,0,20.6-9.2,20.6-20.6c0-11.4-9.2-20.6-20.6-20.6h-21.2c1.6-8.6,2.5-17.4,2.5-26.4c0-9.2-0.9-18.1-2.6-26.8H174l81.6,80.4
		C255.7,174,255.8,173,255.9,171.9L255.9,171.9L255.9,171.9z M21.5,0.3H0v53.2h21.5c37.5,0,68,30.5,68,68c0,10.2-2.3,19.9-6.3,28.6
		l39.2,38.6c12.9-19.2,20.4-42.3,20.4-67.2C142.7,54.7,88.3,0.3,21.5,0.3L21.5,0.3L21.5,0.3z"/>
	
		<linearGradient id="SVGID_5_" gradientUnits="userSpaceOnUse" x1="-167.7952" y1="541.131" x2="-166.7524" y2="540.4457" gradientTransform="matrix(160.7307 0 0 -174.8133 27089.666 94605.375)">
		<stop  offset="0" style="stop-color:#B84E51"/>
		<stop  offset="1" style="stop-color:#F68E48"/>
	</linearGradient>
	<path class="st4" d="M182.2,0.3H95.2c21.2,13,38.8,31.3,50.8,53.2h36.1c11.4,0,20.6,9.2,20.6,20.6c0,11.4-9.2,20.6-20.6,20.6H174
		l81.6,80.4c0.2-2.2,0.3-4.4,0.3-6.6c0-17.9-6.4-34.4-17.1-47.2C249.5,108.5,256,92,256,74.1C256,33.4,222.9,0.3,182.2,0.3
		L182.2,0.3L182.2,0.3z"/>
	
		<linearGradient id="SVGID_6_" gradientUnits="userSpaceOnUse" x1="-167.5739" y1="539.424" x2="-167.5249" y2="538.1848" gradientTransform="matrix(176.7653 0 0 -92.6293 29704.3418 50138.2969)">
		<stop  offset="0" style="stop-color:#F9A03C"/>
		<stop  offset="1" style="stop-color:#F7974E"/>
	</linearGradient>
	<path class="st5" d="M176.8,242.3h-81c16.3-10.1,30.4-23.3,41.4-38.9L176.8,242.3L176.8,242.3z M122.4,188.7l-39.2-38.6
		c-10.8,23.3-34.4,39.4-61.7,39.4H0v53.2h21.5C63.5,242.7,100.6,221.2,122.4,188.7L122.4,188.7L122.4,188.7z"/>
</g>
</svg>
